<svg role='img' viewBox='0 0 512 512' xmlns='http://www.w3.org/2000/svg'><style id="style833" type="text/css">.st0{fill:#888}.st1{fill:#326ce5}.st2{fill:#1a52cb}.st3{fill:#aaa}.st4{fill:#7baa40}</style><path id="path835" d="M279.7 200.6l-26.1 26.1 30.2 30.4 25.1-25.1z"/><path id="path837" d="M168.3 218.8l-35 35.3.1.1L255 376.1l.1.1 35-35.3z"/><path id="path839" d="M396.1 431.2l19.3 19.5-52.8 53.3-19.3-19.5 52.7-53.2z" class="st0"/><path id="path841" d="M294.3 328.6l-52.8 53.3 101.8 102.6 52.7-53.2.1-.1z" class="st1"/><path transform="translate(-3 3)" id="polygon843" class="st1" d="M208.4 224.7l-99.6 100.9 9.6 9.6 59.5 60 9.5 9.6L287 304l30.5-30.9-78.6-79.3-30.5 30.9z"/><path id="path845" d="M80.2 112.6l-52.7 53.2-.1.1 101.8 102.6 52.8-53.3z" class="st2"/><path id="path847" d="M174.9 398.2l-22.7 22.7-59.5-60 22.7-22.7z" class="st0"/><path id="path849" d="M80.2 112.6l-52.7 53.2-.1.1L8 146.4l52.8-53.3z" class="st0"/><path id="path851" d="M124.5 193.3l39.6 39.9-17.1 17.2-39.6-39.9z"/><path id="path853" d="M276.5 346.6l39.4 39.7-17.1 17.2-39.4-39.7z"/><g transform="translate(-3 3)" id="g859"><path id="polygon855" class="st2" d="M208.4 224.7l22 22 30.4-30.8-21.9-22.1z"/><path id="polygon857" class="st2" d="M230.3 246.8l-21.9-22.1-99.6 100.9 9.5 9.6 12.5 12.4z"/></g><g transform="translate(-3 3)" id="g865"><path id="path861" d="M202.5 264.6a6 6 0 00-8.5.1l-29.1 30a6.02 6.02 0 004.3 10.2c1.6 0 3.2-.7 4.3-1.8l29.1-30a6.1 6.1 0 00-.1-8.5z" class="st3"/><path id="path863" d="M153.2 306.7l-9.7 10.1a6.02 6.02 0 008.6 8.4l9.7-10.1a6 6 0 00-.2-8.5 5.8 5.8 0 00-8.4.1z" class="st3"/></g><g transform="translate(-3 3)" id="g873"><path id="path867" d="M500.5 118.9c-3.3 0-6-2.7-6-6v-.7c5.2-47.1-28.8-89.5-75.9-94.7-6.2-.7-12.6-.7-18.8 0-3.3.4-6.3-2-6.6-5.3-.3-3.3 2-6.3 5.3-6.6 53.7-5.9 102 32.8 107.9 86.5.8 7.1.8 14.3 0 21.4-.3 3-2.9 5.4-5.9 5.4z" class="st4"/><path id="path869" d="M475.2 118.9c-.3 0-.6 0-.9-.1-3.3-.5-5.5-3.5-5.1-6.8A60.78 60.78 0 00400 42.8c-3.3.5-6.3-1.8-6.8-5.1s1.8-6.3 5.1-6.8a72.85 72.85 0 0182.9 82.9c-.5 2.9-3 5.1-6 5.1z" class="st4"/><path id="path871" d="M449.7 118.9c-3.3 0-6-2.7-6-6 0-.5.1-1 .2-1.4a35.78 35.78 0 00-43.3-43.3 5.9 5.9 0 01-7.2-4.5c-.8-3.2 1.2-6.4 4.4-7.2a47.8 47.8 0 0157.8 57.8 6.1 6.1 0 01-5.9 4.6z" class="st4"/></g><path id="path875" d="M347.2 171.8c-3.3 0-6-2.7-6-6 0-1.6.6-3.1 1.8-4.2l30.8-30.8a6.1 6.1 0 018.5 0 6.1 6.1 0 010 8.5l-30.8 30.8a6.31 6.31 0 01-4.3 1.7z" class="st0"/><circle id="circle877" r="16" cy="128" cx="385" class="st4"/><path id="path879" d="M291 109a81.13 81.13 0 003 111.1c30 30.3 78.6 31.7 110.2 3z" fill="#f46800"/><path id="path881" d="M301.7 222.6a81.33 81.33 0 0111.2-91.5l-22-22.1a81.13 81.13 0 003 111.1c3.7 3.8 7.9 7.2 12.3 10.1-1.6-2.4-3.2-5-4.5-7.6z" fill="#e6522c"/></svg>